<mxfile host="app.diagrams.net" modified="2024-05-09T12:03:56.216Z" agent="Mozilla/5.0 (Windows NT 10.0; Win64; x64) AppleWebKit/537.36 (KHTML, like Gecko) Chrome/124.0.0.0 Safari/537.36" etag="t65SvLfEJod_HF60zLkA" version="24.3.1" type="device">
  <diagram name="Page-1" id="R_YrZ99SPnAqDCRVdpbv">
    <mxGraphModel dx="1980" dy="949" grid="0" gridSize="10" guides="1" tooltips="1" connect="1" arrows="1" fold="1" page="1" pageScale="1" pageWidth="827" pageHeight="1169" math="0" shadow="0">
      <root>
        <mxCell id="0" />
        <mxCell id="1" parent="0" />
        <mxCell id="KSVaMBfGeAe50Jw7c8Wh-63" value="" style="group" vertex="1" connectable="0" parent="1">
          <mxGeometry x="120" y="383" width="668" height="342" as="geometry" />
        </mxCell>
        <mxCell id="KSVaMBfGeAe50Jw7c8Wh-53" value="" style="group" vertex="1" connectable="0" parent="KSVaMBfGeAe50Jw7c8Wh-63">
          <mxGeometry y="261" width="668" height="81" as="geometry" />
        </mxCell>
        <mxCell id="KSVaMBfGeAe50Jw7c8Wh-55" value="" style="rounded=1;whiteSpace=wrap;html=1;strokeWidth=2;" vertex="1" parent="KSVaMBfGeAe50Jw7c8Wh-53">
          <mxGeometry x="-16" y="-16" width="684" height="97" as="geometry" />
        </mxCell>
        <mxCell id="KSVaMBfGeAe50Jw7c8Wh-18" value="&lt;div style=&quot;line-height: 150%;&quot;&gt;&lt;b&gt;&lt;font data-font-src=&quot;https://fonts.googleapis.com/css?family=Jetbrains+Mono&quot; face=&quot;Jetbrains Mono&quot;&gt;API&lt;br&gt;reference&lt;/font&gt;&lt;/b&gt;&lt;/div&gt;" style="rounded=1;whiteSpace=wrap;html=1;glass=0;shadow=0;strokeWidth=2;" vertex="1" parent="KSVaMBfGeAe50Jw7c8Wh-53">
          <mxGeometry x="174" width="130" height="65" as="geometry" />
        </mxCell>
        <mxCell id="KSVaMBfGeAe50Jw7c8Wh-19" value="&lt;div style=&quot;line-height: 150%;&quot;&gt;&lt;b&gt;&lt;font data-font-src=&quot;https://fonts.googleapis.com/css?family=Jetbrains+Mono&quot; face=&quot;Jetbrains Mono&quot;&gt;Anatomy&lt;/font&gt;&lt;/b&gt;&lt;/div&gt;" style="rounded=1;whiteSpace=wrap;html=1;glass=0;shadow=0;strokeWidth=2;" vertex="1" parent="KSVaMBfGeAe50Jw7c8Wh-53">
          <mxGeometry x="348" width="130" height="65" as="geometry" />
        </mxCell>
        <mxCell id="KSVaMBfGeAe50Jw7c8Wh-20" value="&lt;div style=&quot;line-height: 150%;&quot;&gt;&lt;b&gt;&lt;font data-font-src=&quot;https://fonts.googleapis.com/css?family=Jetbrains+Mono&quot; face=&quot;Jetbrains Mono&quot;&gt;Example&lt;/font&gt;&lt;/b&gt;&lt;/div&gt;" style="rounded=1;whiteSpace=wrap;html=1;glass=0;shadow=0;strokeWidth=2;" vertex="1" parent="KSVaMBfGeAe50Jw7c8Wh-53">
          <mxGeometry x="522" width="130" height="65" as="geometry" />
        </mxCell>
        <mxCell id="KSVaMBfGeAe50Jw7c8Wh-21" value="&lt;div style=&quot;line-height: 150%;&quot;&gt;&lt;b&gt;&lt;font data-font-src=&quot;https://fonts.googleapis.com/css?family=Jetbrains+Mono&quot; face=&quot;Jetbrains Mono&quot;&gt;Related&lt;/font&gt;&lt;/b&gt;&lt;/div&gt;&lt;div style=&quot;line-height: 150%;&quot;&gt;&lt;b&gt;&lt;font data-font-src=&quot;https://fonts.googleapis.com/css?family=Jetbrains+Mono&quot; face=&quot;Jetbrains Mono&quot;&gt;resources&lt;/font&gt;&lt;/b&gt;&lt;/div&gt;" style="rounded=1;whiteSpace=wrap;html=1;glass=0;shadow=0;strokeWidth=2;" vertex="1" parent="KSVaMBfGeAe50Jw7c8Wh-53">
          <mxGeometry width="130" height="65" as="geometry" />
        </mxCell>
        <mxCell id="KSVaMBfGeAe50Jw7c8Wh-43" value="" style="endArrow=classic;startArrow=classic;html=1;rounded=0;exitX=1;exitY=0.5;exitDx=0;exitDy=0;entryX=0;entryY=0.5;entryDx=0;entryDy=0;dashed=1;" edge="1" parent="KSVaMBfGeAe50Jw7c8Wh-53" source="KSVaMBfGeAe50Jw7c8Wh-21" target="KSVaMBfGeAe50Jw7c8Wh-18">
          <mxGeometry width="50" height="50" relative="1" as="geometry">
            <mxPoint x="205" y="177" as="sourcePoint" />
            <mxPoint x="255" y="127" as="targetPoint" />
          </mxGeometry>
        </mxCell>
        <mxCell id="KSVaMBfGeAe50Jw7c8Wh-44" value="" style="endArrow=classic;startArrow=classic;html=1;rounded=0;exitX=1;exitY=0.5;exitDx=0;exitDy=0;entryX=0;entryY=0.5;entryDx=0;entryDy=0;dashed=1;" edge="1" parent="KSVaMBfGeAe50Jw7c8Wh-53" source="KSVaMBfGeAe50Jw7c8Wh-18" target="KSVaMBfGeAe50Jw7c8Wh-19">
          <mxGeometry width="50" height="50" relative="1" as="geometry">
            <mxPoint x="327" y="114" as="sourcePoint" />
            <mxPoint x="348" y="114" as="targetPoint" />
          </mxGeometry>
        </mxCell>
        <mxCell id="KSVaMBfGeAe50Jw7c8Wh-45" value="" style="endArrow=classic;startArrow=classic;html=1;rounded=0;exitX=1;exitY=0.5;exitDx=0;exitDy=0;entryX=0;entryY=0.5;entryDx=0;entryDy=0;dashed=1;" edge="1" parent="KSVaMBfGeAe50Jw7c8Wh-53" source="KSVaMBfGeAe50Jw7c8Wh-19" target="KSVaMBfGeAe50Jw7c8Wh-20">
          <mxGeometry width="50" height="50" relative="1" as="geometry">
            <mxPoint x="476" y="93" as="sourcePoint" />
            <mxPoint x="497" y="93" as="targetPoint" />
          </mxGeometry>
        </mxCell>
        <mxCell id="KSVaMBfGeAe50Jw7c8Wh-58" value="" style="endArrow=classic;html=1;rounded=0;exitX=0.5;exitY=1;exitDx=0;exitDy=0;entryX=0.5;entryY=0;entryDx=0;entryDy=0;" edge="1" parent="KSVaMBfGeAe50Jw7c8Wh-63" source="qFDOg5S67PU4SxuDKiyZ-1" target="KSVaMBfGeAe50Jw7c8Wh-54">
          <mxGeometry width="50" height="50" relative="1" as="geometry">
            <mxPoint x="276" y="-86" as="sourcePoint" />
            <mxPoint x="326" y="-136" as="targetPoint" />
          </mxGeometry>
        </mxCell>
        <mxCell id="KSVaMBfGeAe50Jw7c8Wh-62" value="" style="group" vertex="1" connectable="0" parent="KSVaMBfGeAe50Jw7c8Wh-63">
          <mxGeometry x="71" y="99" width="526" height="113" as="geometry" />
        </mxCell>
        <mxCell id="KSVaMBfGeAe50Jw7c8Wh-54" value="" style="rounded=1;whiteSpace=wrap;html=1;strokeWidth=2;" vertex="1" parent="KSVaMBfGeAe50Jw7c8Wh-62">
          <mxGeometry width="526" height="113" as="geometry" />
        </mxCell>
        <mxCell id="KSVaMBfGeAe50Jw7c8Wh-52" value="" style="group;" vertex="1" connectable="0" parent="KSVaMBfGeAe50Jw7c8Wh-62">
          <mxGeometry x="16" y="16" width="494" height="81" as="geometry" />
        </mxCell>
        <mxCell id="KSVaMBfGeAe50Jw7c8Wh-4" value="&lt;div style=&quot;line-height: 150%;&quot;&gt;&lt;b&gt;&lt;font data-font-src=&quot;https://fonts.googleapis.com/css?family=Jetbrains+Mono&quot; face=&quot;Jetbrains Mono&quot;&gt;Introduction&lt;br&gt;&lt;/font&gt;&lt;/b&gt;&lt;span style=&quot;font-family: &amp;quot;Jetbrains Mono&amp;quot;; font-size: 8px;&quot;&gt;/introduction&lt;/span&gt;&lt;b&gt;&lt;font data-font-src=&quot;https://fonts.googleapis.com/css?family=Jetbrains+Mono&quot; face=&quot;Jetbrains Mono&quot;&gt;&lt;br&gt;&lt;/font&gt;&lt;/b&gt;&lt;/div&gt;" style="rounded=1;whiteSpace=wrap;html=1;glass=0;shadow=0;strokeWidth=2;" vertex="1" parent="KSVaMBfGeAe50Jw7c8Wh-52">
          <mxGeometry y="16" width="130" height="65" as="geometry" />
        </mxCell>
        <mxCell id="KSVaMBfGeAe50Jw7c8Wh-16" value="" style="endArrow=classic;startArrow=classic;html=1;rounded=0;exitX=1;exitY=0.5;exitDx=0;exitDy=0;entryX=0;entryY=0.5;entryDx=0;entryDy=0;dashed=1;" edge="1" parent="KSVaMBfGeAe50Jw7c8Wh-52" source="KSVaMBfGeAe50Jw7c8Wh-4" target="KSVaMBfGeAe50Jw7c8Wh-9">
          <mxGeometry width="50" height="50" relative="1" as="geometry">
            <mxPoint x="5" y="-48.5" as="sourcePoint" />
            <mxPoint x="55" y="-98.5" as="targetPoint" />
          </mxGeometry>
        </mxCell>
        <mxCell id="KSVaMBfGeAe50Jw7c8Wh-6" value="" style="group" vertex="1" connectable="0" parent="KSVaMBfGeAe50Jw7c8Wh-52">
          <mxGeometry x="174" width="146" height="81" as="geometry" />
        </mxCell>
        <mxCell id="KSVaMBfGeAe50Jw7c8Wh-7" value="&lt;div style=&quot;line-height: 150%;&quot;&gt;&lt;br&gt;&lt;/div&gt;" style="rounded=1;whiteSpace=wrap;html=1;glass=0;shadow=0;strokeWidth=2;" vertex="1" parent="KSVaMBfGeAe50Jw7c8Wh-6">
          <mxGeometry x="16" width="130" height="65" as="geometry" />
        </mxCell>
        <mxCell id="KSVaMBfGeAe50Jw7c8Wh-8" value="&lt;div style=&quot;line-height: 150%;&quot;&gt;&lt;br&gt;&lt;/div&gt;" style="rounded=1;whiteSpace=wrap;html=1;glass=0;shadow=0;strokeWidth=2;" vertex="1" parent="KSVaMBfGeAe50Jw7c8Wh-6">
          <mxGeometry x="8" y="8" width="130" height="65" as="geometry" />
        </mxCell>
        <mxCell id="KSVaMBfGeAe50Jw7c8Wh-9" value="&lt;div style=&quot;line-height: 150%;&quot;&gt;&lt;font style=&quot;&quot; data-font-src=&quot;https://fonts.googleapis.com/css?family=Jetbrains+Mono&quot; face=&quot;Jetbrains Mono&quot;&gt;&lt;b&gt;Primitives&lt;/b&gt;&lt;br&gt;&lt;font style=&quot;font-size: 8px;&quot;&gt;/primitives/[name]&lt;/font&gt;&lt;/font&gt;&lt;/div&gt;" style="rounded=1;whiteSpace=wrap;html=1;glass=0;shadow=0;strokeWidth=2;" vertex="1" parent="KSVaMBfGeAe50Jw7c8Wh-6">
          <mxGeometry y="16" width="130" height="65" as="geometry" />
        </mxCell>
        <mxCell id="KSVaMBfGeAe50Jw7c8Wh-5" value="&lt;div style=&quot;line-height: 150%;&quot;&gt;&lt;b&gt;&lt;font data-font-src=&quot;https://fonts.googleapis.com/css?family=Jetbrains+Mono&quot; face=&quot;Jetbrains Mono&quot;&gt;Resources&lt;br&gt;&lt;/font&gt;&lt;/b&gt;&lt;span style=&quot;font-family: &amp;quot;Jetbrains Mono&amp;quot;; font-size: 8px;&quot;&gt;/resources/[name]&lt;/span&gt;&lt;b&gt;&lt;font data-font-src=&quot;https://fonts.googleapis.com/css?family=Jetbrains+Mono&quot; face=&quot;Jetbrains Mono&quot;&gt;&lt;br&gt;&lt;/font&gt;&lt;/b&gt;&lt;/div&gt;" style="rounded=1;whiteSpace=wrap;html=1;glass=0;shadow=0;strokeWidth=2;" vertex="1" parent="KSVaMBfGeAe50Jw7c8Wh-52">
          <mxGeometry x="364" width="130" height="65" as="geometry" />
        </mxCell>
        <mxCell id="KSVaMBfGeAe50Jw7c8Wh-50" value="" style="endArrow=classic;startArrow=classic;html=1;rounded=0;exitX=1;exitY=0.5;exitDx=0;exitDy=0;entryX=0;entryY=0.5;entryDx=0;entryDy=0;dashed=1;" edge="1" parent="KSVaMBfGeAe50Jw7c8Wh-52" source="KSVaMBfGeAe50Jw7c8Wh-7" target="KSVaMBfGeAe50Jw7c8Wh-5">
          <mxGeometry width="50" height="50" relative="1" as="geometry">
            <mxPoint x="320" y="32.35000000000002" as="sourcePoint" />
            <mxPoint x="364" y="32.35000000000002" as="targetPoint" />
          </mxGeometry>
        </mxCell>
        <mxCell id="qFDOg5S67PU4SxuDKiyZ-1" value="&lt;font data-font-src=&quot;https://fonts.googleapis.com/css?family=Jetbrains+Mono&quot; face=&quot;Jetbrains Mono&quot;&gt;&lt;b&gt;Landing page&lt;br&gt;&lt;/b&gt;&lt;span style=&quot;font-size: 8px;&quot;&gt;/&lt;/span&gt;&lt;b&gt;&lt;br&gt;&lt;/b&gt;&lt;/font&gt;" style="rounded=1;whiteSpace=wrap;html=1;glass=0;shadow=0;strokeWidth=2;" parent="KSVaMBfGeAe50Jw7c8Wh-63" vertex="1">
          <mxGeometry x="269" width="130" height="65" as="geometry" />
        </mxCell>
        <mxCell id="KSVaMBfGeAe50Jw7c8Wh-61" value="" style="endArrow=classic;html=1;rounded=0;exitX=0.5;exitY=1;exitDx=0;exitDy=0;entryX=0.5;entryY=0;entryDx=0;entryDy=0;" edge="1" parent="KSVaMBfGeAe50Jw7c8Wh-63" source="KSVaMBfGeAe50Jw7c8Wh-9" target="KSVaMBfGeAe50Jw7c8Wh-55">
          <mxGeometry width="50" height="50" relative="1" as="geometry">
            <mxPoint x="273" y="239" as="sourcePoint" />
            <mxPoint x="323" y="189" as="targetPoint" />
          </mxGeometry>
        </mxCell>
      </root>
    </mxGraphModel>
  </diagram>
</mxfile>
